<svg width="34" height="34" viewBox="0 0 34 34" fill="none" xmlns="http://www.w3.org/2000/svg">
<path d="M17 33.3914C26.0527 33.3914 33.3915 26.0527 33.3915 17C33.3915 7.94723 26.0527 0.608521 17 0.608521C7.94724 0.608521 0.608528 7.94723 0.608528 17C0.608528 26.0527 7.94724 33.3914 17 33.3914Z" fill="#FF0000"/>
<path d="M24.2747 17.2686L26.7853 12.919L25.5971 10.8755H20.5731L23.4924 5.83691C22.6955 5.37191 21.8509 4.99412 20.9731 4.71008L17 11.5411L18.1998 13.6021H23.2238L20.7133 17.9546L21.9014 20.0185H29.5848C29.8007 19.1172 29.9191 18.1952 29.938 17.2686H24.2747Z" fill="white"/>
<path d="M15.8089 27.8041H18.1998L20.7162 23.4545L23.4544 28.1982C24.2544 27.7381 25.003 27.194 25.6876 26.5751L21.8926 20.0127H19.5134L16.9971 24.3653L14.4865 20.0244H12.1044L8.30945 26.5868C8.99299 27.207 9.74177 27.7512 10.5427 28.2099L13.2838 23.4632L15.8089 27.8041Z" fill="white"/>
<path d="M13.2926 17.9546L10.785 13.602H15.806L17 11.541L13.0386 4.68958C12.1608 4.97361 11.3162 5.3514 10.5193 5.8164L13.4385 10.855H8.4087L7.21765 12.8984L9.72819 17.2539H4.07365C4.09111 18.1874 4.20954 19.1163 4.42687 20.0243H12.1044L13.2926 17.9546Z" fill="white"/>
</svg>
