<svg width="40" height="40" viewBox="0 0 40 40" fill="none" xmlns="http://www.w3.org/2000/svg">
<g clip-path="url(#clip0_5187_4253)">
<path d="M20 0C31.0467 0 40 8.95509 40 20C40 31.0467 31.0467 40 20 40C8.95509 40 0 31.0458 0 20C0 8.95509 8.95509 0 20 0Z" fill="#F5AC37"/>
<path d="M20.7371 21.4122H28.3368C28.4988 21.4122 28.5753 21.4122 28.587 21.1998C28.6491 20.4266 28.6491 19.649 28.587 18.875C28.587 18.7247 28.5123 18.6626 28.3494 18.6626H13.2247C13.0375 18.6626 12.9871 18.7247 12.9871 18.9002V21.1251C12.9871 21.4122 12.9871 21.4122 13.2868 21.4122H20.7371ZM27.7383 16.0625C27.7599 16.0058 27.7599 15.9437 27.7383 15.8879C27.6114 15.6116 27.4611 15.3479 27.2865 15.1004C27.0237 14.6774 26.7141 14.2877 26.3613 13.9376C26.1948 13.7261 26.0022 13.5362 25.7862 13.3751C24.7043 12.4544 23.4182 11.8028 22.0358 11.4752C21.3383 11.3186 20.6255 11.2439 19.9109 11.2502H13.1986C13.0114 11.2502 12.9862 11.3249 12.9862 11.4878V15.9248C12.9862 16.112 12.9862 16.1624 13.2238 16.1624H27.6483C27.6483 16.1624 27.7734 16.1372 27.7986 16.0625H27.7374H27.7383ZM27.7383 24.0123C27.5259 23.9889 27.3117 23.9889 27.0993 24.0123H13.2373C13.0501 24.0123 12.9871 24.0123 12.9871 24.2625V28.6005C12.9871 28.8003 12.9871 28.8507 13.2373 28.8507H19.6373C19.9433 28.8741 20.2493 28.8525 20.549 28.7886C21.4778 28.722 22.3913 28.5204 23.2625 28.1883C23.5793 28.0785 23.8853 27.9354 24.1742 27.7635H24.2615C25.7619 26.9832 26.9805 25.7574 27.7491 24.2526C27.7491 24.2526 27.8364 24.0636 27.7383 24.0141V24.0123ZM10.4752 31.0999V31.0252V28.1127V27.1254V24.1878C10.4752 24.0249 10.4752 24.0006 10.2754 24.0006H7.56277C7.41247 24.0006 7.35037 24.0006 7.35037 23.8008V21.4257H10.2502C10.4122 21.4257 10.4752 21.4257 10.4752 21.2133V18.8633C10.4752 18.713 10.4752 18.6761 10.2754 18.6761H7.56277C7.41247 18.6761 7.35037 18.6761 7.35037 18.4763V16.2767C7.35037 16.139 7.35037 16.1021 7.55017 16.1021H10.2376C10.4248 16.1021 10.4752 16.1021 10.4752 15.8645V9.12703C10.4752 8.92723 10.4752 8.87683 10.7254 8.87683H20.0999C20.7803 8.90383 21.4562 8.97853 22.1249 9.10183C23.5028 9.35654 24.8267 9.84884 26.0373 10.5517C26.8401 11.0243 27.579 11.5949 28.2369 12.2519C28.7319 12.7658 29.1783 13.322 29.5743 13.9142C29.9676 14.5145 30.2943 15.1562 30.5508 15.8267C30.5823 16.0013 30.7497 16.1192 30.9243 16.0895H33.1617C33.4488 16.0895 33.4488 16.0895 33.4614 16.3649V18.4151C33.4614 18.6149 33.3867 18.6653 33.186 18.6653H31.4607C31.2861 18.6653 31.2357 18.6653 31.2483 18.8903C31.3167 19.6517 31.3167 20.4158 31.2483 21.1773C31.2483 21.3897 31.2483 21.4149 31.4868 21.4149H33.4605C33.5478 21.5274 33.4605 21.6399 33.4605 21.7533C33.4731 21.8982 33.4731 22.0449 33.4605 22.1898V23.7027C33.4605 23.9151 33.3984 23.9781 33.2103 23.9781H30.8478C30.6831 23.9466 30.5229 24.0519 30.4851 24.2157C29.9226 25.6782 29.0226 26.9895 27.8598 28.0407C27.435 28.4232 26.9886 28.7832 26.5224 29.1153C26.022 29.4033 25.5351 29.703 25.022 29.9406C24.0779 30.3654 23.0879 30.6786 22.0718 30.8776C21.107 31.0504 20.1287 31.1287 19.1468 31.1152H10.4716V31.1026L10.4752 31.0999Z" fill="#FEFEFD"/>
</g>
<defs>
<clipPath id="clip0_5187_4253">
<rect width="40" height="40" fill="white"/>
</clipPath>
</defs>
</svg>
