<svg width="41" height="41" viewBox="0 0 41 41" fill="none" xmlns="http://www.w3.org/2000/svg">
<path d="M6.64416 31.6908C6.50076 31.3562 6.29768 31.134 6.06343 30.9257C2.54523 27.8 0.517148 23.924 0.0771506 19.2925C-0.742278 10.6848 5.04716 2.66708 13.5665 0.555682C21.4687 -1.40323 29.622 1.92814 33.7352 8.79738C33.8501 8.98909 33.9962 9.14507 34.1609 9.29321C38.6081 13.2903 40.6433 18.2468 40.1864 24.1305C39.5985 31.6908 33.7619 38.1732 26.1537 39.8184C24.1087 40.261 22.0494 40.3551 19.9652 40.1347C19.3685 40.0719 18.7539 40.1852 18.1473 40.2087C14.1401 40.363 10.1748 40.1094 6.29768 39.0271C4.99996 38.6646 3.7432 38.1941 2.63341 37.4159C0.855608 36.1689 0.852045 34.6771 2.62896 33.4162C3.72272 32.6398 4.97413 32.198 6.24959 31.8102C6.37606 31.7718 6.50254 31.7335 6.64416 31.6917V31.6908ZM38.2545 22.5455C38.2857 13.7844 31.0863 7.1365 22.9517 6.80885C13.2539 6.41846 6.01088 13.9665 6.05453 22.5638C6.09995 31.3649 13.2067 38.2873 22.1679 38.3082C31.1317 38.3291 38.3035 31.1871 38.2536 22.5463L38.2545 22.5455ZM5.43461 15.7703C7.38699 11.4003 10.5222 8.20396 14.9614 6.31564C19.4076 4.42383 23.943 4.38461 28.5425 5.95749C28.4133 5.67429 28.1711 5.57408 27.9823 5.42942C25.4046 3.44176 22.4689 2.32637 19.201 2.11287C16.1593 1.91419 13.2619 2.48583 10.5739 3.92626C6.80359 5.94616 4.22417 8.94639 2.87835 12.9505C2.83471 13.0812 2.78216 13.184 2.90507 13.3025C3.74498 14.1182 4.58134 14.9373 5.43372 15.7703H5.43461ZM2.24418 15.5795C2.19341 16.2731 2.1373 16.8308 2.1186 17.3894C2.10969 17.6552 1.99479 17.968 2.20499 18.1841C2.85252 18.849 3.52766 19.4877 4.20814 20.1526C4.35154 19.4668 4.47623 18.8333 4.62142 18.2033C4.65259 18.0673 4.6802 17.9697 4.56441 17.8573C3.82158 17.1358 3.08588 16.4073 2.24418 15.5804V15.5795ZM4.27138 25.3078C4.21437 24.764 4.17162 24.2186 4.09413 23.6783C4.05761 23.4238 4.193 23.1232 4.00774 22.9219C3.59268 22.4723 3.13487 22.0601 2.60224 21.5434C2.99503 22.962 3.47956 24.1924 4.27138 25.3087V25.3078Z" fill="black"/>
<path d="M38.2543 22.5452C38.3033 31.1869 31.1315 38.328 22.1686 38.3071C13.2074 38.2862 6.09974 31.3638 6.0552 22.5626C6.01156 13.9663 13.2546 6.41733 22.9524 6.80771C31.087 7.13536 38.2855 13.7833 38.2552 22.5443L38.2543 22.5452ZM12.6516 23.3643C12.624 23.3652 12.5973 23.3661 12.5697 23.3669C12.4084 22.0729 12.233 20.7797 12.0985 19.4822C12.0682 19.1903 11.9524 19.1703 11.7173 19.1755C11.1989 19.1877 10.6752 19.2199 10.1621 19.1677C9.67672 19.118 9.72304 19.3515 9.78271 19.6609C9.98846 20.7179 10.1871 21.7766 10.3884 22.8345C10.6057 23.9778 10.823 25.1211 11.0368 26.2652C11.0787 26.4874 11.1517 26.6051 11.4323 26.5885C11.9791 26.5563 12.5287 26.5719 13.0774 26.5833C13.292 26.5876 13.414 26.5772 13.4408 26.3062C13.4844 25.8652 13.6002 25.4313 13.6821 24.993C13.8335 24.1765 13.9823 23.3591 14.1328 22.5426C14.2272 22.7735 14.2655 22.9975 14.3056 23.2197C14.4891 24.2383 14.6681 25.257 14.8614 26.2739C14.8899 26.4255 14.9041 26.6007 15.1776 26.5885C15.7841 26.5606 16.3934 26.5719 17.0008 26.5841C17.1977 26.5885 17.2244 26.5127 17.2564 26.3401C17.4782 25.1542 17.7205 23.9717 17.9538 22.7875C18.1614 21.7304 18.3662 20.6734 18.5693 19.6164C18.6201 19.3506 18.6548 19.1302 18.2228 19.1685C17.708 19.2147 17.1861 19.186 16.6668 19.1764C16.4566 19.172 16.3684 19.2069 16.3435 19.4526C16.209 20.7719 16.0442 22.0877 15.8901 23.4044C15.6532 22.0834 15.4653 20.7606 15.2916 19.436C15.2693 19.267 15.2524 19.172 15.0458 19.1755C14.4971 19.186 13.9484 19.1816 13.3998 19.1772C13.2484 19.1764 13.1584 19.1999 13.1433 19.3838C13.0987 19.9005 13.0328 20.4155 12.9687 20.9305C12.8672 21.7418 12.7585 22.5522 12.6534 23.3626L12.6516 23.3643ZM29.1693 22.8859C29.1693 24.0031 29.1809 25.1202 29.1613 26.2365C29.156 26.5301 29.2495 26.5981 29.5309 26.5868C30.0787 26.5658 30.6283 26.5667 31.176 26.5868C31.4415 26.5963 31.4922 26.4979 31.4869 26.2643C31.4717 25.6552 31.4815 25.0461 31.4815 24.437C31.4815 23.7817 31.4824 23.8044 32.1309 23.7739C32.4524 23.7591 32.4782 23.8811 32.4738 24.1355C32.4595 24.8605 32.4755 25.5864 32.4649 26.3114C32.4622 26.5109 32.5058 26.592 32.7303 26.5868C33.3226 26.5719 33.9167 26.5737 34.509 26.5868C34.7147 26.5911 34.7878 26.5432 34.7869 26.3262C34.7789 24.0344 34.7797 21.7426 34.786 19.4509C34.786 19.2496 34.7397 19.172 34.517 19.1772C33.9247 19.1921 33.3306 19.1903 32.7383 19.1772C32.5192 19.1729 32.4604 19.2504 32.4649 19.4535C32.4764 19.9754 32.4684 20.4974 32.4684 21.0203C32.4684 21.7322 32.4684 21.7156 31.7532 21.7165C31.4922 21.7165 31.4744 21.618 31.478 21.4159C31.4878 20.7919 31.4691 20.168 31.4878 19.545C31.4958 19.2714 31.4334 19.1598 31.1262 19.1738C30.5935 19.199 30.0582 19.199 29.5256 19.1738C29.2263 19.1598 29.1586 19.2574 29.1622 19.5354C29.1782 20.6516 29.1684 21.7688 29.1684 22.8859H29.1693ZM19.2061 22.8781C19.2061 24.0092 19.2097 25.1411 19.2035 26.2722C19.2026 26.4691 19.2097 26.5894 19.476 26.5868C20.6918 26.5728 21.9076 26.5754 23.1234 26.5859C23.3416 26.5876 23.3977 26.5205 23.3924 26.3158C23.3781 25.8225 23.3772 25.3293 23.3924 24.8361C23.3986 24.6244 23.33 24.5642 23.118 24.5712C22.6442 24.586 22.1694 24.5791 21.6947 24.5738C21.5905 24.573 21.4685 24.6235 21.4231 24.4422C21.3064 23.9743 21.4364 23.793 21.9209 23.7922C22.2175 23.7922 22.515 23.78 22.8107 23.7965C23.037 23.8087 23.1269 23.7469 23.1162 23.509C23.0975 23.089 23.0993 22.6672 23.1162 22.2472C23.1252 22.0258 23.0681 21.9344 22.8241 21.9466C22.4545 21.9648 22.0813 21.9309 21.7125 21.957C21.3598 21.9823 21.4284 21.7583 21.4284 21.5649C21.4284 21.3732 21.3571 21.151 21.7116 21.1754C22.1098 21.2032 22.5124 21.1675 22.9123 21.1867C23.1857 21.1998 23.3113 21.1501 23.2873 20.8381C23.2534 20.405 23.2579 19.9667 23.2864 19.5336C23.306 19.2382 23.2044 19.1694 22.9167 19.1738C21.8052 19.1894 20.6927 19.1929 19.5811 19.172C19.2489 19.1659 19.1981 19.2844 19.2017 19.5702C19.2168 20.6726 19.2079 21.7749 19.2079 22.8772L19.2061 22.8781ZM24.9876 23.8035C24.9876 24.6157 25.0027 25.4278 24.9796 26.2382C24.9706 26.5362 25.074 26.5972 25.351 26.5859C25.8685 26.565 26.3886 26.5615 26.9061 26.5868C27.2134 26.6016 27.3042 26.5197 27.2998 26.2086C27.2811 24.8753 27.2909 23.5412 27.2918 22.208C27.2918 21.8612 27.1653 21.4211 27.3345 21.1919C27.5198 20.941 27.9954 21.1187 28.3428 21.1126C28.5922 21.1083 28.6358 21.0159 28.6278 20.8015C28.6127 20.3815 28.6055 19.9598 28.6296 19.5406C28.6456 19.2592 28.5646 19.1685 28.2653 19.1729C27.0655 19.1894 25.8649 19.1799 24.6651 19.1799C23.6515 19.1799 23.6453 19.1799 23.6551 20.1497C23.6578 20.4643 23.5117 20.88 23.7246 21.063C23.9009 21.2146 24.316 21.1004 24.6251 21.1039C24.6402 21.1039 24.6553 21.1056 24.6696 21.1039C24.9208 21.063 24.9983 21.1614 24.9929 21.4115C24.9769 22.2088 24.9867 23.0062 24.9867 23.8035H24.9876Z" fill="white"/>
<path d="M5.4344 15.7702C4.58202 14.938 3.74567 14.118 2.90575 13.3023C2.78373 13.1838 2.83539 13.0801 2.87903 12.9503C4.22397 8.94534 6.80427 5.94599 10.5745 3.92608C13.2626 2.48566 16.16 1.91315 19.2017 2.1127C22.4696 2.32619 25.4053 3.44158 27.9829 5.42925C28.1709 5.5739 28.4131 5.67411 28.5432 5.95731C23.9437 4.38444 19.4074 4.42365 14.962 6.31546C10.5229 8.20378 7.38767 11.4001 5.43529 15.7702H5.4344Z" fill="#DB3C7A"/>
<path d="M2.24397 15.5795C3.08478 16.4064 3.82137 17.1349 4.5642 17.8565C4.67999 17.9689 4.65238 18.0673 4.62121 18.2024C4.47692 18.8324 4.35133 19.4659 4.20793 20.1517C3.52745 19.4868 2.85231 18.8481 2.20478 18.1832C1.99458 17.968 2.10948 17.6543 2.11839 17.3885C2.13709 16.8299 2.19321 16.2722 2.24397 15.5786V15.5795Z" fill="#DB3C7A"/>
<path d="M4.27118 25.3078C3.47847 24.1915 2.99483 22.9611 2.60204 21.5425C3.13555 22.0601 3.59248 22.4714 4.00753 22.921C4.1928 23.1215 4.0583 23.423 4.09393 23.6774C4.17142 24.2185 4.21417 24.764 4.27118 25.3069V25.3078Z" fill="#DB3C7A"/>
<path d="M12.6525 23.3642C12.7576 22.5538 12.8663 21.7434 12.9678 20.9321C13.0328 20.4171 13.0978 19.9021 13.1424 19.3854C13.1584 19.2015 13.2475 19.178 13.3989 19.1789C13.9476 19.1823 14.4962 19.1876 15.0449 19.1771C15.2515 19.1728 15.2684 19.2677 15.2907 19.4377C15.4635 20.7622 15.6514 22.085 15.8892 23.406C16.0433 22.0893 16.209 20.7735 16.3426 19.4542C16.3675 19.2085 16.4557 19.1736 16.6659 19.178C17.1843 19.1884 17.7071 19.2163 18.2219 19.1701C18.6539 19.1318 18.6192 19.3514 18.5684 19.618C18.3653 20.6759 18.1605 21.7329 17.953 22.7891C17.7205 23.9733 17.4773 25.1558 17.2556 26.3418C17.2235 26.5134 17.1968 26.5893 16.9999 26.5858C16.3925 26.5736 15.7833 26.5622 15.1767 26.5901C14.9033 26.6032 14.889 26.4272 14.8605 26.2755C14.6672 25.2586 14.4882 24.24 14.3047 23.2213C14.2646 22.9982 14.2254 22.7751 14.1319 22.5442C13.9823 23.3616 13.8335 24.1781 13.6812 24.9946C13.6002 25.432 13.4835 25.8669 13.4399 26.3078C13.4131 26.5788 13.2911 26.5893 13.0765 26.5849C12.5278 26.5736 11.9783 26.5588 11.4314 26.5901C11.1508 26.6067 11.0778 26.489 11.0359 26.2668C10.8221 25.1227 10.6048 23.9794 10.3875 22.8361C10.1871 21.7783 9.98758 20.7195 9.78183 19.6625C9.72127 19.3531 9.67495 19.1196 10.1613 19.1693C10.6743 19.2216 11.198 19.1893 11.7164 19.1771C11.9515 19.1719 12.0673 19.1911 12.0976 19.4839C12.2321 20.7805 12.4076 22.0737 12.5688 23.3686C12.5964 23.3677 12.6231 23.3668 12.6507 23.3659L12.6525 23.3642Z" fill="black"/>
<path d="M29.1702 22.8869C29.1702 21.7698 29.1791 20.6527 29.164 19.5364C29.1604 19.2576 29.2272 19.16 29.5274 19.1748C30.06 19.2001 30.5953 19.2001 31.1279 19.1748C31.4352 19.16 31.4976 19.2724 31.4896 19.546C31.4708 20.1691 31.4896 20.793 31.4798 21.4169C31.4762 21.6191 31.494 21.7175 31.755 21.7175C32.4702 21.7158 32.4702 21.7332 32.4702 21.0213C32.4702 20.4993 32.4782 19.9765 32.4666 19.4545C32.4622 19.2515 32.5219 19.1739 32.7401 19.1783C33.3333 19.1905 33.9265 19.1922 34.5188 19.1783C34.7405 19.173 34.7878 19.2506 34.7878 19.4519C34.7815 21.7437 34.7806 24.0355 34.7886 26.3272C34.7886 26.5442 34.7165 26.5921 34.5108 26.5878C33.9176 26.5756 33.3244 26.5738 32.7321 26.5878C32.5076 26.593 32.464 26.512 32.4666 26.3124C32.4773 25.5874 32.4613 24.8615 32.4755 24.1365C32.4809 23.883 32.4542 23.7601 32.1326 23.7749C31.4851 23.8054 31.4833 23.7819 31.4833 24.438C31.4833 25.0472 31.4735 25.6563 31.4887 26.2654C31.494 26.4989 31.4441 26.5982 31.1778 26.5878C30.63 26.5677 30.0805 26.5669 29.5327 26.5878C29.2504 26.5982 29.1577 26.5311 29.1631 26.2375C29.1827 25.1212 29.1711 24.0041 29.1711 22.8869H29.1702Z" fill="black"/>
<path d="M19.207 22.8783C19.207 21.7759 19.2159 20.6736 19.2008 19.5713C19.1963 19.2855 19.248 19.167 19.5802 19.1731C20.6918 19.1949 21.8043 19.1905 22.9158 19.1748C23.2035 19.1705 23.3051 19.2393 23.2855 19.5347C23.257 19.9678 23.2525 20.4061 23.2864 20.8392C23.3104 21.1503 23.1848 21.2008 22.9114 21.1878C22.5124 21.1686 22.1098 21.2043 21.7107 21.1764C21.3563 21.152 21.4284 21.3742 21.4275 21.5659C21.4275 21.7594 21.3589 21.9825 21.7116 21.9581C22.0804 21.9319 22.4536 21.9659 22.8232 21.9476C23.0673 21.9354 23.1243 22.0269 23.1154 22.2482C23.0993 22.6683 23.0966 23.09 23.1154 23.51C23.126 23.7479 23.0361 23.8098 22.8098 23.7976C22.5141 23.781 22.2167 23.7932 21.9201 23.7932C21.4355 23.7932 21.3055 23.9754 21.4222 24.4433C21.4676 24.6246 21.5896 24.574 21.6938 24.5749C22.1686 24.5801 22.6433 24.5871 23.1171 24.5723C23.3291 24.5662 23.3977 24.6254 23.3915 24.8372C23.3763 25.3295 23.3772 25.8236 23.3915 26.3168C23.3977 26.5216 23.3416 26.5887 23.1225 26.5869C21.9067 26.5765 20.6909 26.5747 19.4751 26.5878C19.2088 26.5904 19.2017 26.4702 19.2026 26.2732C19.2088 25.1422 19.2053 24.0102 19.2053 22.8791L19.207 22.8783Z" fill="black"/>
<path d="M24.9885 23.8046C24.9885 23.0073 24.9787 22.2099 24.9947 21.4126C25 21.1625 24.9217 21.0649 24.6714 21.105C24.6571 21.1076 24.642 21.105 24.6268 21.105C24.3178 21.1015 23.9027 21.2157 23.7264 21.064C23.5135 20.881 23.6596 20.4645 23.6569 20.1508C23.6471 19.1809 23.6533 19.1809 24.6669 19.1809C25.8667 19.1809 27.0673 19.1905 28.2671 19.174C28.5663 19.1696 28.6474 19.2602 28.6314 19.5417C28.6073 19.9609 28.6144 20.3826 28.6296 20.8026C28.6376 21.017 28.5939 21.1094 28.3446 21.1137C27.9972 21.1198 27.5216 20.942 27.3363 21.193C27.1671 21.4231 27.2935 21.8622 27.2935 22.2091C27.2927 23.5423 27.2829 24.8764 27.3016 26.2097C27.306 26.5199 27.2152 26.6027 26.9079 26.5878C26.3904 26.5626 25.8702 26.5661 25.3527 26.587C25.0749 26.5983 24.9724 26.5373 24.9813 26.2393C25.0045 25.428 24.9893 24.6159 24.9893 23.8046H24.9885Z" fill="black"/>
</svg>
